<svg xmlns="http://www.w3.org/2000/svg" viewBox="0 0 1644.64 1857.8">
  <g id="Logo_Arq_ULS" data-name="Logo Arq ULS" fill='#fff'>
    <path
      d="M1590.64,1857.8a41.86,41.86,0,0,0-3.25-4.17q-176.92-177-353.82-354a12.25,12.25,0,0,0-9.57-4q-604.47.13-1208.95.09H7.87V221H1282.63v6.66q0,604.49-.08,1209a13.34,13.34,0,0,0,4.25,10.44q176.7,176.49,353.27,353.11a50.75,50.75,0,0,0,4.57,3.65v54ZM1207.26,820.52V296.1H82.86V820.52ZM82.94,895.74v524.67H1154c-1.78-1.85-3-3.17-4.26-4.44Q891.54,1157.71,633.34,899.4a11.76,11.76,0,0,0-9.16-3.73q-267.72.12-535.45.07Zm654.93.27,469.5,469.53V896Z" />
  </g>
</svg>