<svg xmlns="http://www.w3.org/2000/svg" viewBox="0 0 1644.64 1857.8"><defs><style>.cls-1{font-size:98px;font-family:CenturyGothic, Century Gothic;}</style></defs><g id="Capa_2" data-name="Capa 2"><g id="Logo_Arq_ULS" data-name="Logo Arq ULS"><g id="Icon"><path d="M1590.64,1857.8a41.86,41.86,0,0,0-3.25-4.17q-176.92-177-353.82-354a12.25,12.25,0,0,0-9.57-4q-604.47.13-1208.95.09H7.87V221H1282.63v6.66q0,604.49-.08,1209a13.34,13.34,0,0,0,4.25,10.44q176.7,176.49,353.27,353.11a50.75,50.75,0,0,0,4.57,3.65v54ZM1207.26,820.52V296.1H82.86V820.52ZM82.94,895.74v524.67H1154c-1.78-1.85-3-3.17-4.26-4.44Q891.54,1157.71,633.34,899.4a11.76,11.76,0,0,0-9.16-3.73q-267.72.12-535.45.07Zm654.93.27,469.5,469.53V896Z"/></g><g id="Text"><text class="cls-1" transform="translate(956.09 183.16)">Serena</text><text class="cls-1" transform="translate(781.53 183.16)">La</text><text class="cls-1" transform="translate(602.81 183.16)">de</text><text class="cls-1" transform="translate(1.53 183.16)">Universidad</text><text class="cls-1" transform="translate(689.28 84.18)">Arquitectura</text><text class="cls-1" transform="translate(462.56 84.18)">de</text><text class="cls-1" transform="translate(0 84.18)">Escuela</text></g></g></g></svg>